<svg id="Layer_1" data-name="Layer 1" xmlns="http://www.w3.org/2000/svg" viewBox="0 0 273.4 60.3"><defs><style>.cls-1{fill:#231f20;}</style></defs><title>logo_web</title><path class="cls-1" d="M15,10.52a14.82,14.82,0,1,0,0,29.63,14.82,14.82,0,1,0,0-29.63Zm0,22.14a7.33,7.33,0,1,1,7.42-7.33A7.39,7.39,0,0,1,15,32.66Z"/><rect class="cls-1" x="227.73" y="14.26" width="7.59" height="26.17"/><rect class="cls-1" x="227.73" y="0.11" width="7.59" height="7.49"/><path class="cls-1" d="M273.4,32.88v7.49a14.94,14.94,0,0,1-15-14.81V18.28H253.6V10.79h4.79V0H266V10.79h7.35v7.49H266v7.28A7.4,7.4,0,0,0,273.4,32.88Z"/><path class="cls-1" d="M65.77,10.79v7.49h-4a7.38,7.38,0,0,0-7.38,6.66V40.39H46.74V10.79H54.4v1.93a15,15,0,0,1,7.39-1.93h4Z"/><path class="cls-1" d="M101.67,10.8v2.28a15,15,0,0,0-23,12.53,15,15,0,0,0,23,12.53V40.4h7.59V10.8Zm-8,22.14a7.33,7.33,0,1,1,7.42-7.33A7.38,7.38,0,0,1,93.67,32.94Z"/><path class="cls-1" d="M155.67,16.94a1.62,1.62,0,0,0,0,.22v-.22Zm-25.51,8c0,.1,0,.2,0,.3h0v-.5A1.34,1.34,0,0,1,130.16,24.89Z"/><path class="cls-1" d="M145.16,10.77a15,15,0,0,0-7.4,1.94l0-1.94h-7.58V40.42h7.59V25.05a7.43,7.43,0,0,1,14.82.14V40.42h7.59V25.19h0A15,15,0,0,0,145.16,10.77Zm10.52,6.39a1.62,1.62,0,0,1,0-.22h0Z"/><path class="cls-1" d="M199.31,10.79v2a15,15,0,0,0-22.45,12.87,14.94,14.94,0,0,0,15,14.82H192a15,15,0,0,0,7.31-2v7.08a7.43,7.43,0,0,1-14.86,0h-7.58a15,15,0,0,0,30,.47c0-.15,0-.3,0-.45V10.79Zm-7.43,22.15a7.33,7.33,0,1,1,7.43-7.33A7.39,7.39,0,0,1,191.88,32.94Z"/><path class="cls-1" d="M206.89,46h0v-.45C206.9,45.71,206.89,45.86,206.89,46Z"/></svg>